<svg xmlns="http://www.w3.org/2000/svg" viewBox="0 0 1200 320" role="img" aria-labelledby="title desc">
  <title id="title">Morphix wordmark</title>
  <desc id="desc">Horizontal Morphix wordmark using the Aleph Void symbol and dark violet branding.</desc>
  <defs>
    <path id="aleph-mark" fill-rule="evenodd" d="M 74 24 L 69 29 L 65 36 L 65 39 L 64 40 L 65 49 L 67 52 L 67 54 L 69 56 L 72 62 L 76 66 L 76 67 L 91 82 L 93 83 L 93 84 L 81 92 L 70 103 L 65 113 L 65 124 L 70 134 L 70 136 L 72 139 L 72 142 L 73 143 L 73 145 L 70 152 L 66 156 L 66 162 L 67 164 L 103 164 L 108 155 L 109 147 L 108 146 L 108 143 L 106 138 L 101 131 L 89 118 L 85 110 L 85 104 L 88 98 L 93 93 L 98 90 L 100 90 L 134 125 L 134 126 L 140 132 L 140 133 L 153 148 L 165 165 L 168 164 L 173 159 L 176 154 L 176 152 L 177 151 L 177 139 L 172 130 L 157 113 L 153 107 L 152 102 L 151 101 L 151 89 L 152 88 L 152 84 L 153 83 L 154 77 L 156 73 L 162 67 L 168 67 L 169 68 L 171 68 L 173 70 L 175 69 L 175 65 L 176 64 L 176 43 L 174 39 L 168 35 L 159 34 L 158 32 L 157 33 L 148 32 L 144 30 L 141 27 L 141 23 L 139 23 L 134 29 L 131 36 L 131 42 L 130 43 L 131 54 L 133 58 L 137 62 L 141 64 L 144 64 L 145 66 L 146 65 L 150 65 L 151 66 L 151 68 L 147 72 L 143 78 L 143 80 L 141 83 L 141 86 L 140 87 L 140 92 L 139 93 L 137 93 L 100 54 L 100 53 L 95 48 L 95 47 L 85 35 L 79 26 L 78 23 Z"/>
  </defs>
  <rect width="1200" height="320" rx="32" fill="#0a0a0f"/>
  <rect x="18" y="18" width="1164" height="284" rx="22" fill="none" stroke="#1e1e2e" stroke-width="3"/>
  <g transform="translate(42 35) scale(1.35)">
    <use href="#aleph-mark" fill="#8b5cf6"/>
  </g>
  <text x="330" y="144" fill="#e4e4e7" font-family="JetBrains Mono, ui-monospace, SFMono-Regular, Menlo, Consolas, monospace" font-size="96" font-weight="700" letter-spacing="0">MORPHIX</text>
  <text x="334" y="202" fill="#8b5cf6" font-family="JetBrains Mono, ui-monospace, SFMono-Regular, Menlo, Consolas, monospace" font-size="24" font-weight="500" letter-spacing="0">// ALEPH VOID</text>
  <path d="M334 242 C394 210 456 210 552 242 C648 274 710 274 770 242 C830 210 892 210 988 242" fill="none" stroke="#6d28d9" stroke-width="8" stroke-linecap="round"/>
</svg>
